<svg version="1.1" xmlns="http://www.w3.org/2000/svg" viewBox="0 0 632.1202430892732 477.326505925525" width="1264.2404861785465" height="954.65301185105">
  <!-- svg-source:excalidraw -->
  
  <defs>
    <style class="style-fonts">
      @font-face {
        font-family: "Virgil";
        src: url("https://excalidraw.com/Virgil.woff2");
      }
      @font-face {
        font-family: "Cascadia";
        src: url("https://excalidraw.com/Cascadia.woff2");
      }
      @font-face {
        font-family: "Assistant";
        src: url("https://excalidraw.com/Assistant-Regular.woff2");
      }
    </style>
    
  </defs>
  <rect x="0" y="0" width="632.1202430892732" height="477.326505925525" fill="#ffffff"></rect><g stroke-linecap="round" transform="translate(427.33984375 86.40853717552498) rotate(0 66.482421875 58.61328125)"><path d="M83.75 14.75 C93.93 21.68, 104.88 31.6, 116.21 44.25 C131.29 58.84, 132.58 57.87, 116.21 73.75 C106.06 80.23, 95.15 94.44, 83.75 102.48 C64.09 116.84, 68 114.56, 50.25 102.48 C42.58 95.27, 36.42 85.82, 16.75 73.75 C2.2 55.88, 2.08 56.74, 16.75 44.25 C25.32 30.2, 39.58 26.03, 50.25 14.75 C70.22 1.7, 67.52 0.12, 83.75 14.75" stroke="none" stroke-width="0" fill="#b2f2bb"></path><path d="M83.75 14.75 C93 24.42, 106.91 35.91, 116.21 44.25 M83.75 14.75 C93.5 24.85, 105.63 34.62, 116.21 44.25 M116.21 44.25 C131.79 59.79, 131.71 60.88, 116.21 73.75 M116.21 44.25 C134.72 60.74, 132.62 59.74, 116.21 73.75 M116.21 73.75 C106.14 81.72, 94.95 91.65, 83.75 102.48 M116.21 73.75 C105.21 84.79, 93.29 94.7, 83.75 102.48 M83.75 102.48 C67.3 118.93, 65.87 118.46, 50.25 102.48 M83.75 102.48 C66.93 119.28, 68.12 119.25, 50.25 102.48 M50.25 102.48 C41.66 93.65, 31.77 84.56, 16.75 73.75 M50.25 102.48 C41.75 96.44, 35.95 89.08, 16.75 73.75 M16.75 73.75 C-0.17 58.75, -0.47 60.81, 16.75 44.25 M16.75 73.75 C-1.62 60.86, -0.01 58.39, 16.75 44.25 M16.75 44.25 C25.14 37.51, 32.93 30.46, 50.25 14.75 M16.75 44.25 C28.78 32.51, 41.82 22.02, 50.25 14.75 M50.25 14.75 C68.22 -0.74, 66.02 -1.38, 83.75 14.75 M50.25 14.75 C65.22 1.73, 65.38 0.62, 83.75 14.75" stroke="#1e1e1e" stroke-width="2" fill="none"></path></g><g mask="url(#mask-a5E8MPgiTX_9FQAxpa1Kt)" stroke-linecap="round"><g transform="translate(96.6700207914464 263.346037175525) rotate(0 262.7528802292766 -81.99609375)"><path d="M0.24 -0.58 C87.76 -28, 438.09 -136.72, 525.45 -164.07" stroke="#1e1e1e" stroke-width="2.5" fill="none" stroke-dasharray="8 10"></path></g><g transform="translate(96.6700207914464 263.346037175525) rotate(0 262.7528802292766 -81.99609375)"><path d="M505.56 -148.92 C510.98 -153.96, 518.26 -160.58, 525.45 -164.07" stroke="#1e1e1e" stroke-width="2.5" fill="none"></path></g><g transform="translate(96.6700207914464 263.346037175525) rotate(0 262.7528802292766 -81.99609375)"><path d="M500.48 -165.25 C507.6 -165.01, 516.52 -166.34, 525.45 -164.07" stroke="#1e1e1e" stroke-width="2.5" fill="none"></path></g></g><mask id="mask-a5E8MPgiTX_9FQAxpa1Kt"><rect x="0" y="0" fill="#fff" width="722.1757812499997" height="527.338224675525"></rect><rect x="308.74293886251985" y="168.849943425525" fill="#000" width="101.35992431640625" height="25" opacity="1"></rect></mask><g transform="translate(308.74293886251985 168.849943425525) rotate(0 50.77096643336125 12.167366154119378)"><text x="50.679962158203125" y="17.52" font-family="Virgil, Segoe UI Emoji" font-size="20px" fill="#1e1e1e" text-anchor="middle" style="white-space: pre;" direction="ltr" dominant-baseline="alphabetic">Raycaster</text></g><g stroke-linecap="round" transform="translate(50.734375 267.060880925525) rotate(0 33.841796875 30.822265625)"><path d="M15.41 0 C25.62 -3.05, 33.29 -1.81, 52.27 0 C59.96 0.92, 67.49 6.31, 67.68 15.41 C69.62 25.37, 67.31 29.82, 67.68 46.23 C67.93 56.48, 61.88 59.12, 52.27 61.64 C39.67 60.7, 29.69 61.43, 15.41 61.64 C2.41 63.9, 0.07 55.3, 0 46.23 C-1.1 32.79, -0.4 22.8, 0 15.41 C-0.26 1.67, 4.7 0.59, 15.41 0" stroke="none" stroke-width="0" fill="#ffec99"></path><path d="M15.41 0 C24.07 -2.2, 30.98 1.29, 52.27 0 M15.41 0 C27.54 0.54, 41.01 0.5, 52.27 0 M52.27 0 C63.77 1.62, 66.82 6.58, 67.68 15.41 M52.27 0 C60.46 -2.13, 66.54 6.24, 67.68 15.41 M67.68 15.41 C65.81 23.23, 66.36 34.31, 67.68 46.23 M67.68 15.41 C68.64 27.04, 68.42 39.48, 67.68 46.23 M67.68 46.23 C66.21 57.25, 60.56 59.8, 52.27 61.64 M67.68 46.23 C69.42 54.86, 60.53 62.45, 52.27 61.64 M52.27 61.64 C41.75 60.98, 27.94 62.33, 15.41 61.64 M52.27 61.64 C40.4 61.46, 30.06 60.35, 15.41 61.64 M15.41 61.64 C6.33 61.19, -1.35 57.78, 0 46.23 M15.41 61.64 C4.7 63.39, -1.9 55.47, 0 46.23 M0 46.23 C1.02 38.04, 1.27 29.1, 0 15.41 M0 46.23 C0.16 38.45, -0.43 29.87, 0 15.41 M0 15.41 C-0.48 5.97, 5.28 0.14, 15.41 0 M0 15.41 C-0.92 6.41, 3.3 -0.95, 15.41 0" stroke="#1e1e1e" stroke-width="2" fill="none"></path></g><g stroke-linecap="round"><g transform="translate(63.0546875 202.721037175525) rotate(0 14.992555960312188 30.318359375)"><path d="M-0.29 -0.59 C4.56 9.67, 24.23 51.07, 29.41 61.11 M1.76 1.71 C6.99 11.64, 27.04 49.45, 31.81 59.24" stroke="#1e1e1e" stroke-width="2" fill="none"></path></g><g transform="translate(63.0546875 202.721037175525) rotate(0 14.992555960312188 30.318359375)"><path d="M13.5 42.22 C18.39 46.82, 26.11 54.56, 31.81 59.24 M13.5 42.22 C18.07 46.03, 22.32 48.8, 31.81 59.24" stroke="#1e1e1e" stroke-width="2" fill="none"></path></g><g transform="translate(63.0546875 202.721037175525) rotate(0 14.992555960312188 30.318359375)"><path d="M28.72 34.43 C28.64 41.52, 31.43 51.79, 31.81 59.24 M28.72 34.43 C29.99 40.03, 30.94 44.49, 31.81 59.24" stroke="#1e1e1e" stroke-width="2" fill="none"></path></g></g><mask></mask><g stroke-linecap="round" transform="translate(10 182.514005925525) rotate(0 51.10546875 24.5)"><path d="M42.06 -0.54 C50.68 -1.72, 63.69 -0.24, 72.23 1.74 C80.78 3.71, 88.38 7.48, 93.35 11.3 C98.31 15.12, 101.66 20.34, 102.03 24.63 C102.4 28.93, 100.36 33.5, 95.56 37.09 C90.75 40.68, 81.63 44.39, 73.23 46.2 C64.83 48.01, 54.25 48.36, 45.16 47.95 C36.07 47.54, 25.71 46.48, 18.67 43.74 C11.63 41.01, 5.56 35.95, 2.91 31.54 C0.26 27.13, 0.47 21.41, 2.78 17.28 C5.09 13.15, 9.65 9.64, 16.8 6.75 C23.94 3.86, 40.67 1.05, 45.63 -0.05 C50.59 -1.14, 46.66 -0.31, 46.54 0.2 M56.38 -1.16 C65.53 -1.32, 76.36 2.52, 83.34 5.36 C90.32 8.21, 95.52 12.02, 98.28 15.9 C101.04 19.77, 101.79 24.25, 99.91 28.64 C98.02 33.02, 93.15 38.84, 86.97 42.22 C80.79 45.61, 71.66 48.11, 62.85 48.93 C54.04 49.75, 43.02 48.65, 34.13 47.15 C25.24 45.64, 15.22 43.59, 9.49 39.89 C3.76 36.19, 0.5 29.45, -0.24 24.94 C-0.98 20.43, 0.72 16.34, 5.05 12.82 C9.39 9.29, 17.33 6.04, 25.75 3.77 C34.17 1.5, 50.93 -0.43, 55.57 -0.78 C60.21 -1.14, 53.83 1.07, 53.58 1.64" stroke="none" stroke-width="0" fill="#1e1e1e"></path><path d="M28.73 2.16 C36.14 -0.21, 47.11 -1.16, 56.39 -0.74 C65.67 -0.32, 77.3 1.64, 84.43 4.68 C91.55 7.71, 96.3 13.24, 99.12 17.45 C101.95 21.67, 103.76 25.7, 101.4 29.96 C99.05 34.23, 91.89 39.98, 84.98 43.05 C78.07 46.12, 68.81 47.62, 59.96 48.37 C51.12 49.13, 40.44 49.33, 31.89 47.58 C23.34 45.83, 13.94 41.51, 8.65 37.89 C3.35 34.27, 0.31 30.25, 0.1 25.86 C-0.1 21.46, 1.3 15.58, 7.42 11.52 C13.55 7.46, 30.47 3.32, 36.84 1.5 C43.21 -0.32, 45.32 0.31, 45.65 0.61 M31.62 3.41 C39.16 1.41, 49.49 -0.47, 58.52 0.23 C67.54 0.94, 78.69 4.68, 85.77 7.64 C92.84 10.61, 98.46 14.18, 100.99 18.02 C103.52 21.86, 104.03 26.7, 100.95 30.67 C97.87 34.65, 89.74 38.9, 82.49 41.88 C75.25 44.85, 66.46 47.65, 57.46 48.52 C48.47 49.39, 36.86 49.09, 28.52 47.07 C20.18 45.06, 12.41 40.2, 7.44 36.43 C2.46 32.67, -1.62 28.65, -1.32 24.5 C-1.02 20.35, 3.79 15.34, 9.21 11.52 C14.63 7.7, 27.29 3.05, 31.2 1.56 C35.1 0.07, 32.59 2.06, 32.63 2.58" stroke="#ffffff" stroke-width="2" fill="none"></path></g><g transform="translate(32.068474232857 194.68988978645456) rotate(0 28.89997100830078 12.5)"><text x="28.89997100830078" y="17.52" font-family="Virgil, Segoe UI Emoji" font-size="20px" fill="#ffffff" text-anchor="middle" style="white-space: pre;" direction="ltr" dominant-baseline="alphabetic">Origen</text></g><g stroke-linecap="round" transform="translate(460.298828125 113.75033405052498) rotate(35.826382671451896 33.841796875 30.822265625)"><path d="M15.41 0 C27.43 2.75, 41.5 -2.66, 52.27 0 C60.31 2.48, 65.71 6.32, 67.68 15.41 C66.16 21.19, 69.59 28.08, 67.68 46.23 C65.68 57.39, 60.66 63.19, 52.27 61.64 C40.72 59.85, 26.45 62.45, 15.41 61.64 C8.49 63.3, 1.41 56.72, 0 46.23 C-0.41 31.02, -1.36 25.72, 0 15.41 C1.87 4.43, 1.62 -1.4, 15.41 0" stroke="none" stroke-width="0" fill="#099268"></path><path d="M15.41 0 C22.95 0, 31.56 1.14, 52.27 0 M15.41 0 C26.12 -0.09, 36.45 -0.97, 52.27 0 M52.27 0 C62.68 -1.53, 69.23 3.92, 67.68 15.41 M52.27 0 C60.68 -0.13, 67.46 7.23, 67.68 15.41 M67.68 15.41 C69.22 25.79, 65.77 31.8, 67.68 46.23 M67.68 15.41 C68.5 26.75, 68.14 36.37, 67.68 46.23 M67.68 46.23 C66.34 55.82, 63 61.24, 52.27 61.64 M67.68 46.23 C66.7 56.47, 64.2 61.69, 52.27 61.64 M52.27 61.64 C46.1 62.2, 38.04 63.54, 15.41 61.64 M52.27 61.64 C38.54 62.2, 26.6 61, 15.41 61.64 M15.41 61.64 C4.08 61.19, -0.36 55.5, 0 46.23 M15.41 61.64 C4.73 61.58, 1.85 54.35, 0 46.23 M0 46.23 C1.24 35.6, -0.72 22.13, 0 15.41 M0 46.23 C0.74 36.05, 0.39 25.71, 0 15.41 M0 15.41 C1.74 4.17, 3.22 0.97, 15.41 0 M0 15.41 C2.16 5.25, 5.34 -1.31, 15.41 0" stroke="#1e1e1e" stroke-width="2" fill="none"></path></g><g stroke-linecap="round"><g transform="translate(298.02386281364534 414.9487150660234) rotate(0 -6.113493906822669 -102.6333701952492)"><path d="M0.48 0.54 C-1.39 -33.54, -10.45 -170.73, -12.39 -204.93 M-0.72 -0.23 C-2.66 -34.64, -11.66 -172.46, -13.43 -206.88" stroke="#1e1e1e" stroke-width="2" fill="none"></path></g><g transform="translate(298.02386281364534 414.9487150660234) rotate(0 -6.113493906822669 -102.6333701952492)"><path d="M-3.51 -183.93 C-4.55 -188.85, -6.9 -191.47, -13.43 -206.88 M-3.51 -183.93 C-7.1 -191.15, -11.03 -200.57, -13.43 -206.88" stroke="#1e1e1e" stroke-width="2" fill="none"></path></g><g transform="translate(298.02386281364534 414.9487150660234) rotate(0 -6.113493906822669 -102.6333701952492)"><path d="M-20.58 -182.92 C-18.14 -188.11, -17.01 -190.94, -13.43 -206.88 M-20.58 -182.92 C-18.2 -190.53, -16.16 -200.31, -13.43 -206.88" stroke="#1e1e1e" stroke-width="2" fill="none"></path></g></g><mask></mask><g stroke-linecap="round" transform="translate(227.55859375 418.326505925525) rotate(0 71.9140625 24.5)"><path d="M67.68 -0.72 C79.18 -1.38, 94.27 1.06, 105.12 2.88 C115.96 4.7, 126.44 6.92, 132.74 10.22 C139.05 13.51, 142.45 18.37, 142.97 22.64 C143.49 26.9, 141.27 32.16, 135.88 35.8 C130.49 39.43, 120.55 42.36, 110.62 44.46 C100.7 46.56, 88.29 47.98, 76.36 48.4 C64.42 48.82, 49.69 48.64, 39.01 46.99 C28.33 45.35, 18.85 42.03, 12.27 38.52 C5.68 35.01, 0.32 30.15, -0.52 25.92 C-1.35 21.69, 1.65 16.75, 7.24 13.15 C12.83 9.54, 21.89 6.54, 33.03 4.29 C44.17 2.03, 66.11 0.16, 74.08 -0.39 C82.06 -0.93, 80.77 0.67, 80.87 0.99 M81.08 1.67 C92.41 1.55, 105.88 2.3, 115.56 4.63 C125.25 6.96, 134.68 11.8, 139.2 15.68 C143.72 19.55, 144.46 23.79, 142.71 27.88 C140.96 31.97, 135.83 37.23, 128.71 40.2 C121.59 43.18, 110.94 44.38, 99.99 45.72 C89.05 47.06, 74.9 48.49, 63.03 48.23 C51.16 47.97, 38.36 46.29, 28.76 44.15 C19.16 42.01, 9.87 39.02, 5.42 35.39 C0.96 31.75, 0.73 26.58, 2.02 22.34 C3.32 18.11, 6.4 13.16, 13.17 9.96 C19.94 6.75, 31.19 4.67, 42.64 3.11 C54.08 1.55, 75.56 0.86, 81.83 0.59 C88.09 0.32, 80.6 1.08, 80.2 1.5" stroke="none" stroke-width="0" fill="#1e1e1e"></path><path d="M100.15 2.13 C110.83 3.21, 121.68 5.92, 128.85 9.06 C136.03 12.19, 141.8 16.59, 143.19 20.93 C144.58 25.28, 142 31.26, 137.19 35.11 C132.38 38.95, 123.92 41.85, 114.32 44.02 C104.73 46.19, 91.41 47.53, 79.62 48.11 C67.83 48.68, 54.48 48.78, 43.56 47.45 C32.64 46.12, 21.44 43.53, 14.12 40.11 C6.8 36.7, 1.12 31.13, -0.35 26.95 C-1.82 22.77, 0.31 18.56, 5.31 15.03 C10.31 11.5, 19.95 8.28, 29.64 5.76 C39.32 3.24, 49.8 0.25, 63.41 -0.07 C77.03 -0.38, 102.14 2.79, 111.31 3.89 C120.48 5, 119.28 6.28, 118.41 6.55 M98.14 1.44 C109.39 2.45, 121.03 7, 128.4 10.06 C135.77 13.11, 140.66 16.12, 142.37 19.78 C144.08 23.44, 143.02 28, 138.65 32.02 C134.29 36.04, 125.49 41.17, 116.2 43.91 C106.91 46.66, 94.51 47.78, 82.92 48.51 C71.32 49.24, 57.85 49.73, 46.6 48.3 C35.35 46.87, 23.23 43.51, 15.42 39.93 C7.6 36.35, 1.65 30.98, -0.29 26.83 C-2.24 22.67, -0.66 18.81, 3.76 15.01 C8.19 11.22, 16.81 6.49, 26.24 4.06 C35.67 1.64, 48.56 0.69, 60.34 0.46 C72.12 0.24, 90.93 2.43, 96.9 2.72 C102.86 3.02, 96.62 2.27, 96.14 2.23" stroke="#ffffff" stroke-width="2" fill="none"></path></g><g transform="translate(257.4217761923072 430.5023897864546) rotate(0 42.19995880126953 12.5)"><text x="42.19995880126953" y="17.52" font-family="Virgil, Segoe UI Emoji" font-size="20px" fill="#ffffff" text-anchor="middle" style="white-space: pre;" direction="ltr" dominant-baseline="alphabetic">Dirección</text></g><g mask="url(#mask-XwqfiILUjah8qe6jKKewx)" stroke-linecap="round"><g transform="translate(561.6015625 10.346037175524984) rotate(0 -18.5390625 44.40234375)"><path d="M0.32 0.46 C-5.51 15.33, -29.81 75.13, -36.01 89.7 M-0.98 -0.35 C-6.77 14.16, -30.3 73.2, -36.4 88.04" stroke="#1e1e1e" stroke-width="2" fill="none"></path></g><g transform="translate(561.6015625 10.346037175524984) rotate(0 -18.5390625 44.40234375)"><path d="M-35.53 63.06 C-34.85 70.08, -34.31 73.85, -36.4 88.04 M-35.53 63.06 C-36.47 68.39, -35.53 74.85, -36.4 88.04" stroke="#1e1e1e" stroke-width="2" fill="none"></path></g><g transform="translate(561.6015625 10.346037175524984) rotate(0 -18.5390625 44.40234375)"><path d="M-19.67 69.46 C-22.34 75.18, -25.13 77.61, -36.4 88.04 M-19.67 69.46 C-24.06 73.26, -26.62 78.3, -36.4 88.04" stroke="#1e1e1e" stroke-width="2" fill="none"></path></g></g><mask id="mask-XwqfiILUjah8qe6jKKewx"><rect x="0" y="0" fill="#fff" width="698.6796875" height="199.150724675525"></rect><rect x="484.18255615234375" y="42.248380925525" fill="#000" width="117.7598876953125" height="25" opacity="1"></rect></mask><g transform="translate(484.18255615234375 42.248380925525) rotate(0 59.37768177014772 12.772343909172342)"><text x="58.87994384765625" y="17.52" font-family="Virgil, Segoe UI Emoji" font-size="20px" fill="#1e1e1e" text-anchor="middle" style="white-space: pre;" direction="ltr" dominant-baseline="alphabetic">Intersección</text></g></svg>